<svg xmlns="http://www.w3.org/2000/svg" width="22.375" height="22.375" viewBox="0 0 22.375 22.375">
  <path id="globe-thin" d="M11.188,0A11.188,11.188,0,1,1,0,11.188,11.187,11.187,0,0,1,11.188,0Zm0,21.676c1.136,0,2.355-.94,3.33-2.889a14.393,14.393,0,0,0,1.145-3.4H6.713a14.392,14.392,0,0,0,1.145,3.4c.975,1.949,2.154,2.889,3.291,2.889ZM6.581,14.684h9.212a20.7,20.7,0,0,0,.288-3.5,20.356,20.356,0,0,0-.288-3.5H6.581a20.356,20.356,0,0,0-.288,3.5,20.7,20.7,0,0,0,.288,3.5Zm9.081-7.691a14.283,14.283,0,0,0-1.145-3.4C13.543,1.639,12.324.7,11.188.7c-1.176,0-2.355.94-3.33,2.89a14.283,14.283,0,0,0-1.145,3.4Zm.839.7a21.341,21.341,0,0,1,.28,3.5,21.341,21.341,0,0,1-.28,3.5h4.576a10.57,10.57,0,0,0,.6-3.5,10.4,10.4,0,0,0-.6-3.5ZM13.438.941a11.1,11.1,0,0,1,2.937,6.051H20.8A10.512,10.512,0,0,0,13.438.941Zm-4.5,0A10.513,10.513,0,0,0,1.572,6.992H6A11.1,11.1,0,0,1,8.937.941ZM.7,11.188a10.625,10.625,0,0,0,.6,3.5H5.873a21.991,21.991,0,0,1,0-6.992H1.3A10.451,10.451,0,0,0,.7,11.188Zm20.1,4.2H16.375a11.118,11.118,0,0,1-2.937,6.053A10.523,10.523,0,0,0,20.8,15.383Zm-14.8,0H1.572a10.524,10.524,0,0,0,7.365,6.053A11.118,11.118,0,0,1,6,15.383Z"/>
</svg>
